# xmcd CD database file
#
# Track frame offsets:
#	150
#	19697
#	46392
#	71967
#	97172
#	130707
#	160415
#	188487
#	216287
#	246115
#	267207
#	285097
#
# Disc length: 4123 seconds
#
# Revision: 0
# Processed by: cddbd v1.5.1PL0 Copyright (c) Steve Scherf et al.
# Submitted via: CDex 1.51
#
DISCID=a910190c
DTITLE=鈴木真仁 - 子育てクイズ　マイエンジェル
DYEAR=1997
DGENRE=Game
TTITLE0=「子育てクイズ　マイエンジェル」　テーマソング　「少女時代」
TTITLE1=マイエンジェル　第１話　「神様、あたし、不安…。」
TTITLE2=マイエンジェル　第２話　「わんぱく編１」
TTITLE3=マイエンジェル　第３話　「わんぱく編２」
TTITLE4=マイエンジェル　第４話　「まじめ編」
TTITLE5=マイエンジェル　第５話　「お色気編１」
TTITLE6=マイエンジェル　第６話　「お色気編２」
TTITLE7=マイエンジェル　第７話　「おたく編１」
TTITLE8=マイエンジェル　第８話　「おたく編２」
TTITLE9=「子育てクイズ　マイエンジェル」　挿入歌　「さよならの瞬き」
TTITLE10=「子育てクイズ　マイエンジェル」　挿入歌　「放課後の景色」
TTITLE11=「子育てクイズ　マイエンジェル」　挿入歌　「Ｍｙ Ａｎｇｅｌ」
EXTD=YEAR: 1997
EXTT0=
EXTT1=
EXTT2=
EXTT3=
EXTT4=
EXTT5=
EXTT6=
EXTT7=
EXTT8=
EXTT9=
EXTT10=
EXTT11=
PLAYORDER=
